<?xml version="1.0" standalone="no"?><?xml-stylesheet type="text/css" href="https://www.processon.com/themes/default/mind/icons/icons.css" ?><!DOCTYPE svg PUBLIC "-//W3C//DTD SVG 1.1//EN" "http://www.w3.org/Graphics/SVG/1.1/DTD/svg11.dtd"><svg xmlns="http://www.w3.org/2000/svg" xlink="http://www.w3.org/1999/xlink" id="mind-svg-con" version="1.1" width="4100.000152587891px" height="8608px" style="position: absolute; left: 0px; top: 0px; width: 4100px; height: 8608px; background: url(&quot;https://cdn.processon.com/62ca3ffee4b0edb75286267c?e=1657425423&amp;token=trhI0BY8QfVrIGn9nENop6JAc6l5nZuxhjQ62UfM:7A1BOba4HkmK_l4BO8zb1e8o7L0=&quot;) 4306.5px 5617px / 15276px 8593px no-repeat; z-index: 999;"><defs><pattern id="katex4d5725b5bd82" width="861" height="404" x="0" y="0" patternUnits="userSpaceOnUse"><image xmlns:xlink="http://www.w3.org/1999/xlink" xlink:href="https://cdn2.processon.com/62ca4033e4b0e0bb280c97d1?e=1657425475&amp;token=trhI0BY8QfVrIGn9nENop6JAc6l5nZuxhjQ62UfM:TpgesRRg6-RFtZR9S9hYNfQ_KWI=" width="863px" height="442px" x="0" y="0"></image></pattern></defs><g id="svgbackgroundid"><defs><pattern id="svgBgId" width="4100.000152587891px" height="8608px" x="0px" y="0px" patternUnits="userSpaceOnUse"><image xmlns:xlink="http://www.w3.org/1999/xlink" xlink:href="https://cdn.processon.com/62ca3ffee4b0edb75286267c?e=1657425423&amp;token=trhI0BY8QfVrIGn9nENop6JAc6l5nZuxhjQ62UfM:7A1BOba4HkmK_l4BO8zb1e8o7L0=" width="15276px" height="8593px" x="-5587.500335693359px" y="8px"></image></pattern></defs><rect x="0" y="0" width="4100.000152587891" height="8608" fill="url(#svgBgId)"></rect></g><g transform="translate(-9893.50033569336, -5609)" id="sdjakdjak5"><defs></defs><g class="svg-topic-con" transform="translate(0.5,0.5)"><path part="right" sub="true" id="line_117ac2b66387" d="M 10000.00033569336 9913.5 L 10106.50033569336 9913.5 L 10106.50033569336 6196 A 8 8 0 0 1 10114.50033569336 6188 L 10136.500366210938 6188" stroke="#000000" fill="none" stroke-width="5"></path><path part="right" sub="true" id="line_86009d6c35e7" d="M 10000.00033569336 9913.5 L 10106.50033569336 9913.5 L 10106.50033569336 6817.5 A 8 8 0 0 1 10114.50033569336 6809.5 L 10136.500366210938 6809.5" stroke="#000000" fill="none" stroke-width="5"></path><path part="right" sub="true" id="line_f4d10b70011e" d="M 10000.00033569336 9913.5 L 10106.50033569336 9913.5 L 10106.50033569336 9434.33349609375 A 8 8 0 0 1 10114.50033569336 9426.33349609375 L 10136.500366210938 9426.33349609375" stroke="#000000" fill="none" stroke-width="5"></path><path part="right" sub="true" id="line_703c2c1b6220" d="M 10000.00033569336 9913.5 L 10106.50033569336 9913.5 L 10106.50033569336 13081 A 8 8 0 0 0 10114.50033569336 13089 L 10136.500366210938 13089" stroke="#000000" fill="none" stroke-width="5"></path></g><g class="svg-connection-con" transform="translate(0.5,0.5)"></g><g class="svg-freesums-con" transform="translate(0.5,0.5)"></g><g class="svg-freebos-con" transform="translate(0.5,0.5)"></g></g><g id="703c2c1b6220"><rect x="243" y="7173" rx="5px" ry="5px" width="934" height="614" style="fill: transparent; stroke:#000000;stroke-width:5px;"></rect><g><text text-anchor="start" align="top" anchor="start" font-size="50px" font-weight="bold" fill="rgb(0, 0, 0)" style="font-size:50px;font-family:微软雅黑;color:#000000;font-style:normal;text-align:left;font-weight:bold;border-color:#000000;"><tspan x="260" y="7754"><tspan>节区头</tspan></tspan></text></g><image xmlns:xlink="http://www.w3.org/1999/xlink" xlink:href="https://cdn2.processon.com/62ca3e28e4b0665262336900?e=1657424952&amp;token=trhI0BY8QfVrIGn9nENop6JAc6l5nZuxhjQ62UfM:pP7JttPxwcnOpGzxJdSGDNuhy7I=" transform="translate(260, 7184)" width="900" height="499"></image></g><g id="b17dbd3ce21b"><rect x="1213.0000305175781" y="6382" rx="1px" ry="1px" width="928" height="176" style="fill: transparent; stroke:#000000;stroke-width:5px;"></rect><g><text text-anchor="start" align="top" anchor="start" font-size="50px" font-weight="bold" fill="rgb(0, 0, 0)" style="font-size:50px;font-family:微软雅黑;color:#000000;font-style:normal;text-align:left;font-weight:bold;border-color:#000000;"><tspan x="1227.0000305175781" y="6449"><tspan>Name:节区名,给人看的,机器不关心节区</tspan></tspan><tspan x="1227.0000305175781" y="6529"><tspan>叫啥</tspan></tspan></text></g></g><g id="94d222ddd10b"><rect x="1213.0000305175781" y="6568" rx="1px" ry="1px" width="910" height="96" style="fill: transparent; stroke:#000000;stroke-width:5px;"></rect><g><text text-anchor="start" align="top" anchor="start" font-size="50px" font-weight="bold" fill="rgb(0, 0, 0)" style="font-size:50px;font-family:微软雅黑;color:#000000;font-style:normal;text-align:left;font-weight:bold;border-color:#000000;"><tspan x="1227.0000305175781" y="6635"><tspan>VirtualSize:本节区在虚拟内存中的大小</tspan></tspan></text></g></g><g id="4608d0c53649"><rect x="1213.0000305175781" y="6674" rx="1px" ry="1px" width="928" height="176" style="fill: transparent; stroke:#000000;stroke-width:5px;"></rect><g><text text-anchor="start" align="top" anchor="start" font-size="50px" font-weight="bold" fill="rgb(0, 0, 0)" style="font-size:50px;font-family:微软雅黑;color:#000000;font-style:normal;text-align:left;font-weight:bold;border-color:#000000;"><tspan x="1227.0000305175781" y="6741"><tspan>VirtualAddress:本节区在内存中的其实</tspan></tspan><tspan x="1227.0000305175781" y="6821"><tspan>地址(RVA)</tspan></tspan></text></g></g><g id="7c945890eb81"><rect x="1213.0000305175781" y="6860" rx="1px" ry="1px" width="928" height="176" style="fill: transparent; stroke:#000000;stroke-width:5px;"></rect><g><text text-anchor="start" align="top" anchor="start" font-size="50px" font-weight="bold" fill="rgb(0, 0, 0)" style="font-size:50px;font-family:微软雅黑;color:#000000;font-style:normal;text-align:left;font-weight:bold;border-color:#000000;"><tspan x="1227.0000305175781" y="6927"><tspan>SizeOfRawData:磁盘文件中节区所占大</tspan></tspan><tspan x="1227.0000305175781" y="7007"><tspan>小</tspan></tspan></text></g></g><g id="b2b9853a680a"><rect x="1213.0000305175781" y="7046" rx="1px" ry="1px" width="928" height="176" style="fill: transparent; stroke:#000000;stroke-width:5px;"></rect><g><text text-anchor="start" align="top" anchor="start" font-size="50px" font-weight="bold" fill="rgb(0, 0, 0)" style="font-size:50px;font-family:微软雅黑;color:#000000;font-style:normal;text-align:left;font-weight:bold;border-color:#000000;"><tspan x="1227.0000305175781" y="7113"><tspan>PointerToRawData:磁盘文件中节区的</tspan></tspan><tspan x="1227.0000305175781" y="7193"><tspan>起始位置</tspan></tspan></text></g></g><g id="ee0739b1604a"><rect x="1213.0000305175781" y="7232" rx="1px" ry="1px" width="753" height="1346" style="fill: transparent; stroke:#000000;stroke-width:5px;"></rect><g><text text-anchor="start" align="top" anchor="start" font-size="50px" font-weight="bold" fill="rgb(0, 0, 0)" style="font-size:50px;font-family:微软雅黑;color:#000000;font-style:normal;text-align:left;font-weight:bold;border-color:#000000;"><tspan x="1227.0000305175781" y="8469"><tspan>Characteristics:节区属性</tspan></tspan><tspan x="1227.0000305175781" y="8549"><tspan>多个属性时按位与</tspan></tspan></text></g><image xmlns:xlink="http://www.w3.org/1999/xlink" xlink:href="https://cdn2.processon.com/62ca3f43e4b0988c60cc5cb4?e=1657425236&amp;token=trhI0BY8QfVrIGn9nENop6JAc6l5nZuxhjQ62UfM:U0TYbHHvf9kq5gzFkrLjcfYbIxA=" transform="translate(1227.0000305175781, 7238)" width="725" height="1160"></image></g><g id="f4d10b70011e"><rect x="243" y="3490.3333282470703" rx="5px" ry="5px" width="934" height="654" style="fill: transparent; stroke:#000000;stroke-width:5px;"></rect><g><text text-anchor="start" align="top" anchor="start" font-size="50px" font-weight="bold" fill="rgb(0, 0, 0)" style="font-size:50px;font-family:微软雅黑;color:#000000;font-style:normal;text-align:left;font-weight:bold;border-color:#000000;"><tspan x="260" y="4031.3333435058594"><tspan>NT头</tspan></tspan><tspan x="260" y="4111.333343505859"><tspan>32位和64位的区别在于可选头</tspan></tspan></text></g><image xmlns:xlink="http://www.w3.org/1999/xlink" xlink:href="https://cdn2.processon.com/62ca31bde4b0b8a11942c93b?e=1657421773&amp;token=trhI0BY8QfVrIGn9nENop6JAc6l5nZuxhjQ62UfM:GcggN4cZfq5rMZuAytceyR39TFU=" transform="translate(260, 3501.3333282470703)" width="900" height="459"></image></g><g id="21780fc9f261"><rect x="1213.0000305175781" y="1273" rx="1px" ry="1px" width="743" height="176" style="fill: transparent; stroke:#000000;stroke-width:5px;"></rect><g><text text-anchor="start" align="top" anchor="start" font-size="50px" font-weight="bold" fill="rgb(0, 0, 0)" style="font-size:50px;font-family:微软雅黑;color:#000000;font-style:normal;text-align:left;font-weight:bold;border-color:#000000;"><tspan x="1227.0000305175781" y="1340"><tspan>Signature:签名魔数,</tspan></tspan><tspan x="1227.0000305175781" y="1420"><tspan>50 45 00 00,ASCII码为"PE"00</tspan></tspan></text></g></g><g id="bea93057b984"><rect x="1213.0000305175781" y="2172" rx="1px" ry="1px" width="928" height="495" style="fill: transparent; stroke:#000000;stroke-width:5px;"></rect><g><text text-anchor="start" align="top" anchor="start" font-size="50px" font-weight="bold" fill="rgb(0, 0, 0)" style="font-size:50px;font-family:微软雅黑;color:#000000;font-style:normal;text-align:left;font-weight:bold;border-color:#000000;"><tspan x="1227.0000305175781" y="2638"><tspan>文件头</tspan></tspan></text></g><image xmlns:xlink="http://www.w3.org/1999/xlink" xlink:href="https://cdn2.processon.com/62ca322fe4b05f97e5fa4b5e?e=1657421887&amp;token=trhI0BY8QfVrIGn9nENop6JAc6l5nZuxhjQ62UfM:3Kq3_XR-HODoiaLWPPExcuWwYWE=" transform="translate(1227.0000305175781, 2178)" width="900" height="389"></image></g><g id="e3af1a6ffee1"><rect x="2177.0001525878906" y="1459" rx="1px" ry="1px" width="929" height="938" style="fill: transparent; stroke:#000000;stroke-width:5px;"></rect><g><text text-anchor="start" align="top" anchor="start" font-size="50px" font-weight="bold" fill="rgb(0, 0, 0)" style="font-size:50px;font-family:微软雅黑;color:#000000;font-style:normal;text-align:left;font-weight:bold;border-color:#000000;"><tspan x="2191.0001525878906" y="2368"><tspan>Machine:CPU标志码</tspan></tspan></text></g><image xmlns:xlink="http://www.w3.org/1999/xlink" xlink:href="https://cdn2.processon.com/62ca370fe4b065adf8b4c081?e=1657423135&amp;token=trhI0BY8QfVrIGn9nENop6JAc6l5nZuxhjQ62UfM:qi2JvqPZpI8Vq_6HmDWaxskoSD0=" transform="translate(2191.0001525878906, 1465)" width="900" height="832"></image></g><g id="527147f9f8c2"><rect x="2177.0001525878906" y="2407" rx="1px" ry="1px" width="928" height="176" style="fill: transparent; stroke:#000000;stroke-width:5px;"></rect><g><text text-anchor="start" align="top" anchor="start" font-size="50px" font-weight="bold" fill="rgb(0, 0, 0)" style="font-size:50px;font-family:微软雅黑;color:#000000;font-style:normal;text-align:left;font-weight:bold;border-color:#000000;"><tspan x="2191.0001525878906" y="2474"><tspan>TimeDateStamp:编译时间戳,记录本文</tspan></tspan><tspan x="2191.0001525878906" y="2554"><tspan>件编译时间</tspan></tspan></text></g></g><g id="59aad8b2929c"><rect x="2177.0001525878906" y="2593" rx="1px" ry="1px" width="721" height="96" style="fill: transparent; stroke:#000000;stroke-width:5px;"></rect><g><text text-anchor="start" align="top" anchor="start" font-size="50px" font-weight="bold" fill="rgb(0, 0, 0)" style="font-size:50px;font-family:微软雅黑;color:#000000;font-style:normal;text-align:left;font-weight:bold;border-color:#000000;"><tspan x="2191.0001525878906" y="2660"><tspan>NumberOfSections:节区数量</tspan></tspan></text></g></g><g id="ee225361e35d"><rect x="2177.0001525878906" y="2699" rx="1px" ry="1px" width="928" height="681" style="fill: transparent; stroke:#000000;stroke-width:5px;"></rect><g><text text-anchor="start" align="top" anchor="start" font-size="50px" font-weight="bold" fill="rgb(0, 0, 0)" style="font-size:50px;font-family:微软雅黑;color:#000000;font-style:normal;text-align:left;font-weight:bold;border-color:#000000;"><tspan x="2191.0001525878906" y="3271"><tspan>Characteristics:标识本文件属性</tspan></tspan><tspan x="2191.0001525878906" y="3351"><tspan>如果有多个标识则按位与</tspan></tspan></text></g><image xmlns:xlink="http://www.w3.org/1999/xlink" xlink:href="https://cdn2.processon.com/62ca379ae4b0c6042dfbbf44?e=1657423274&amp;token=trhI0BY8QfVrIGn9nENop6JAc6l5nZuxhjQ62UfM:LWV9OObdVbUQziokaVNcMiO0eQE=" transform="translate(2191.0001525878906, 2705)" width="900" height="495"></image></g><g id="e851a1dbdecd"><rect x="1213.0000305175781" y="4444.3333740234375" rx="1px" ry="1px" width="929" height="863" style="fill: transparent; stroke:#000000;stroke-width:5px;"></rect><g><text text-anchor="start" align="top" anchor="start" font-size="50px" font-weight="bold" fill="rgb(0, 0, 0)" style="font-size:50px;font-family:微软雅黑;color:#000000;font-style:normal;text-align:left;font-weight:bold;border-color:#000000;"><tspan x="1227.0000305175781" y="5278.3333740234375"><tspan>32位可选头</tspan></tspan></text></g><image xmlns:xlink="http://www.w3.org/1999/xlink" xlink:href="https://cdn2.processon.com/62ca360de4b05b4779a4fcc7?e=1657422877&amp;token=trhI0BY8QfVrIGn9nENop6JAc6l5nZuxhjQ62UfM:ttVJeZUx0Xio0Au_ha6LGE6rVPQ=" transform="translate(1227.0000305175781, 4450.3333740234375)" width="900" height="757"></image></g><g id="806a6fa4e518"><rect x="2178.0001525878906" y="3390" rx="1px" ry="1px" width="767" height="256" style="fill: transparent; stroke:#000000;stroke-width:5px;"></rect><g><text text-anchor="start" align="top" anchor="start" font-size="50px" font-weight="bold" fill="rgb(0, 0, 0)" style="font-size:50px;font-family:微软雅黑;color:#000000;font-style:normal;text-align:left;font-weight:bold;border-color:#000000;"><tspan x="2192.0001525878906" y="3457"><tspan>magic:标识32位或者64位的魔数</tspan></tspan><tspan x="2192.0001525878906" y="3537"><tspan>32位可选头的magic为10B,</tspan></tspan><tspan x="2192.0001525878906" y="3617"><tspan>64位可选头的magic为20B,</tspan></tspan></text></g></g><g id="f60fa614488b"><rect x="2178.0001525878906" y="3656" rx="1px" ry="1px" width="922" height="96" style="fill: transparent; stroke:#000000;stroke-width:5px;"></rect><g><text text-anchor="start" align="top" anchor="start" font-size="50px" font-weight="bold" fill="rgb(0, 0, 0)" style="font-size:50px;font-family:微软雅黑;color:#000000;font-style:normal;text-align:left;font-weight:bold;border-color:#000000;"><tspan x="2192.0001525878906" y="3723"><tspan>AddressOfEntryPoint:程序入口点位置</tspan></tspan></text></g></g><g id="4d5725b5bd82"><rect x="2178.0001525878906" y="3762" rx="1px" ry="1px" width="889" height="417" style="fill: transparent; stroke:#000000;stroke-width:5px;"></rect><rect transform="translate(2192.0001525878906,3766)" width="861" height="404" fill="url(#katex4d5725b5bd82)"></rect></g><g id="e1ecd51bce00"><rect x="3103.4584045410156" y="3882.3333435058594" rx="1px" ry="1px" width="910" height="176" style="fill: transparent; stroke:#000000;stroke-width:5px;"></rect><g><text text-anchor="start" align="top" anchor="start" font-size="50px" font-weight="bold" fill="rgb(0, 0, 0)" style="font-size:50px;font-family:微软雅黑;color:#000000;font-style:normal;text-align:left;font-weight:bold;border-color:#000000;"><tspan x="3117.4584045410156" y="3949.3333435058594"><tspan>通常exe文件的映像基地址为0x400000</tspan></tspan><tspan x="3117.4584045410156" y="4029.3333435058594"><tspan>DLL文件的映像基地址为0x10000000</tspan></tspan></text></g></g><g id="5c244e0e62e5"><rect x="2178.0001525878906" y="4188.666687011719" rx="1px" ry="1px" width="928" height="176" style="fill: transparent; stroke:#000000;stroke-width:5px;"></rect><g><text text-anchor="start" align="top" anchor="start" font-size="50px" font-weight="bold" fill="rgb(0, 0, 0)" style="font-size:50px;font-family:微软雅黑;color:#000000;font-style:normal;text-align:left;font-weight:bold;border-color:#000000;"><tspan x="2192.0001525878906" y="4255.666687011719"><tspan>SectionAlignment:节区在虚拟地址空</tspan></tspan><tspan x="2192.0001525878906" y="4335.666687011719"><tspan>间中的对齐要求</tspan></tspan></text></g></g><g id="b422a1a18dfa"><rect x="2178.0001525878906" y="4374.666687011719" rx="1px" ry="1px" width="928" height="176" style="fill: transparent; stroke:#000000;stroke-width:5px;"></rect><g><text text-anchor="start" align="top" anchor="start" font-size="50px" font-weight="bold" fill="rgb(0, 0, 0)" style="font-size:50px;font-family:微软雅黑;color:#000000;font-style:normal;text-align:left;font-weight:bold;border-color:#000000;"><tspan x="2192.0001525878906" y="4441.666687011719"><tspan>FileAlignment:节区在磁盘中的对齐要</tspan></tspan><tspan x="2192.0001525878906" y="4521.666687011719"><tspan>求</tspan></tspan></text></g></g><g id="9dbd67be2f46"><rect x="2178.0001525878906" y="4560.666687011719" rx="1px" ry="1px" width="928" height="176" style="fill: transparent; stroke:#000000;stroke-width:5px;"></rect><g><text text-anchor="start" align="top" anchor="start" font-size="50px" font-weight="bold" fill="rgb(0, 0, 0)" style="font-size:50px;font-family:微软雅黑;color:#000000;font-style:normal;text-align:left;font-weight:bold;border-color:#000000;"><tspan x="2192.0001525878906" y="4627.666687011719"><tspan>SizeOfImage:本进程在虚拟内存中实际</tspan></tspan><tspan x="2192.0001525878906" y="4707.666687011719"><tspan>占用空间大小</tspan></tspan></text></g></g><g id="def9c25328ec"><rect x="2178.0001525878906" y="4746.666748046875" rx="1px" ry="1px" width="928" height="176" style="fill: transparent; stroke:#000000;stroke-width:5px;"></rect><g><text text-anchor="start" align="top" anchor="start" font-size="50px" font-weight="bold" fill="rgb(0, 0, 0)" style="font-size:50px;font-family:微软雅黑;color:#000000;font-style:normal;text-align:left;font-weight:bold;border-color:#000000;"><tspan x="2192.0001525878906" y="4813.666748046875"><tspan>SizeOfHeaders:整个PE头的大小,要求F</tspan></tspan><tspan x="2192.0001525878906" y="4893.666748046875"><tspan>ileAlignment对齐.</tspan></tspan></text></g></g><g id="e863b92f3d5b"><rect x="2178.0001525878906" y="4932.666748046875" rx="1px" ry="1px" width="928" height="622" style="fill: transparent; stroke:#000000;stroke-width:5px;"></rect><g><text text-anchor="start" align="top" anchor="start" font-size="50px" font-weight="bold" fill="rgb(0, 0, 0)" style="font-size:50px;font-family:微软雅黑;color:#000000;font-style:normal;text-align:left;font-weight:bold;border-color:#000000;"><tspan x="2192.0001525878906" y="5445.666748046875"><tspan>SubSystem:区分系统驱动文件.sys和可</tspan></tspan><tspan x="2192.0001525878906" y="5525.666748046875"><tspan>执行文件.exe</tspan></tspan></text></g><image xmlns:xlink="http://www.w3.org/1999/xlink" xlink:href="https://cdn2.processon.com/62ca3b33e4b0b8a11942ccf9?e=1657424195&amp;token=trhI0BY8QfVrIGn9nENop6JAc6l5nZuxhjQ62UfM:lYEgs4n0jkXTMNttcPGzjJYpgEc=" transform="translate(2192.0001525878906, 4938.666748046875)" width="900" height="436"></image></g><g id="a0ed27c15878"><rect x="2178.0001525878906" y="5564.666748046875" rx="1px" ry="1px" width="928" height="176" style="fill: transparent; stroke:#000000;stroke-width:5px;"></rect><g><text text-anchor="start" align="top" anchor="start" font-size="50px" font-weight="bold" fill="rgb(0, 0, 0)" style="font-size:50px;font-family:微软雅黑;color:#000000;font-style:normal;text-align:left;font-weight:bold;border-color:#000000;"><tspan x="2192.0001525878906" y="5631.666748046875"><tspan>NumberOfRvaAndSizes:指定DataDir</tspan></tspan><tspan x="2192.0001525878906" y="5711.666748046875"><tspan>ectory数组的个数</tspan></tspan></text></g></g><g id="78e91b6e0135"><rect x="2178.0001525878906" y="5848.666748046875" rx="1px" ry="1px" width="928" height="415" style="fill: transparent; stroke:#000000;stroke-width:5px;"></rect><g><text text-anchor="start" align="top" anchor="start" font-size="50px" font-weight="bold" fill="rgb(0, 0, 0)" style="font-size:50px;font-family:微软雅黑;color:#000000;font-style:normal;text-align:left;font-weight:bold;border-color:#000000;"><tspan x="2192.0001525878906" y="6074.666748046875"><tspan>DataDirectory[IMAGE_NUMBEROF_</tspan></tspan><tspan x="2192.0001525878906" y="6154.666748046875"><tspan>DIRECTORY_ENTRIES];</tspan></tspan><tspan x="2192.0001525878906" y="6234.666748046875"><tspan>目录数组,记录本程序的各种目录环境</tspan></tspan></text></g><image xmlns:xlink="http://www.w3.org/1999/xlink" xlink:href="https://cdn2.processon.com/62ca3c04e4b06abd88fd6f80?e=1657424405&amp;token=trhI0BY8QfVrIGn9nENop6JAc6l5nZuxhjQ62UfM:OL7T4fecFcHfG3QVdPQ_h2NMhn8=" transform="translate(2192.0001525878906, 5854.666748046875)" width="900" height="149"></image></g><g id="5f1ad82170b5"><rect x="3142.0001525878906" y="5750.666748046875" rx="1px" ry="1px" width="928" height="611" style="fill: transparent; stroke:#000000;stroke-width:5px;"></rect><g><text text-anchor="start" align="top" anchor="start" font-size="50px" font-weight="bold" fill="rgb(0, 0, 0)" style="font-size:50px;font-family:微软雅黑;color:#000000;font-style:normal;text-align:left;font-weight:bold;border-color:#000000;"><tspan x="3156.0001525878906" y="6332.666748046875"><tspan> </tspan></tspan></text></g><image xmlns:xlink="http://www.w3.org/1999/xlink" xlink:href="https://cdn2.processon.com/62ca3cd2e4b0988c60cc5be3?e=1657424610&amp;token=trhI0BY8QfVrIGn9nENop6JAc6l5nZuxhjQ62UfM:V7APvs8fl70xGukADRCgW1o23rY=" transform="translate(3156.0001525878906, 5756.666748046875)" width="900" height="505"></image></g><g id="86009d6c35e7"><rect x="243" y="1148" rx="5px" ry="5px" width="194" height="105" style="fill: transparent; stroke:#000000;stroke-width:5px;"></rect><g><text text-anchor="start" align="top" anchor="start" font-size="50px" font-weight="bold" fill="rgb(0, 0, 0)" style="font-size:50px;font-family:微软雅黑;color:#000000;font-style:normal;text-align:left;font-weight:bold;border-color:#000000;"><tspan x="260" y="1220"><tspan>DOS桩</tspan></tspan></text></g></g><g id="117ac2b66387"><rect x="243" y="30" rx="5px" ry="5px" width="934" height="1098" style="fill: transparent; stroke:#000000;stroke-width:5px;"></rect><g><text text-anchor="start" align="top" anchor="start" font-size="50px" font-weight="bold" fill="rgb(0, 0, 0)" style="font-size:50px;font-family:微软雅黑;color:#000000;font-style:normal;text-align:left;font-weight:bold;border-color:#000000;"><tspan x="260" y="1015"><tspan>DOS头</tspan></tspan><tspan x="260" y="1095"><tspan>PE头最开始的64个字节</tspan></tspan></text></g><image xmlns:xlink="http://www.w3.org/1999/xlink" xlink:href="https://cdn2.processon.com/62ca313ce4b0edb752861fb4?e=1657421645&amp;token=trhI0BY8QfVrIGn9nENop6JAc6l5nZuxhjQ62UfM:Qi85EFczH2Z6zHNzvGACvhKfW3M=" transform="translate(260, 41)" width="900" height="904"></image></g><g id="ca86115a433a"><rect x="1213.0000305175781" y="358" rx="1px" ry="1px" width="681" height="176" style="fill: transparent; stroke:#000000;stroke-width:5px;"></rect><g><text text-anchor="start" align="top" anchor="start" font-size="50px" font-weight="bold" fill="rgb(0, 0, 0)" style="font-size:50px;font-family:微软雅黑;color:#000000;font-style:normal;text-align:left;font-weight:bold;border-color:#000000;"><tspan x="1227.0000305175781" y="425"><tspan>e_magic:DOS签名魔数,</tspan></tspan><tspan x="1227.0000305175781" y="505"><tspan>值为4D 5A,ASCII码为"MZ" </tspan></tspan></text></g></g><g id="62ab4b673bf8"><rect x="1213.0000305175781" y="544" rx="1px" ry="1px" width="928" height="256" style="fill: transparent; stroke:#000000;stroke-width:5px;"></rect><g><text text-anchor="start" align="top" anchor="start" font-size="50px" font-weight="bold" fill="rgb(0, 0, 0)" style="font-size:50px;font-family:微软雅黑;color:#000000;font-style:normal;text-align:left;font-weight:bold;border-color:#000000;"><tspan x="1227.0000305175781" y="611"><tspan>e_lfanew:</tspan></tspan><tspan x="1227.0000305175781" y="691"><tspan>NT头的偏移量,由于DOS头和NT头之间</tspan></tspan><tspan x="1227.0000305175781" y="771"><tspan>的DOS桩大小可变,该值可变</tspan></tspan></text></g></g><g transform="translate(243, 6382)" id="sdjakdjak0"><g id="subline_703c2c1b6220" transform="translate(0.5,0.5)"><path id="line_b17dbd3ce21b" d="M 934 1098 L 952 1098 L 952 92 A 4 4 0 0 1 956 88 L 970 88" p="703c2c1b6220" stroke="#000000" fill="none" stroke-linecap="square" stroke-width="5"></path><path id="line_94d222ddd10b" d="M 934 1098 L 952 1098 L 952 238 A 4 4 0 0 1 956 234 L 970 234" p="703c2c1b6220" stroke="#000000" fill="none" stroke-linecap="square" stroke-width="5"></path><path id="line_4608d0c53649" d="M 934 1098 L 952 1098 L 952 384 A 4 4 0 0 1 956 380 L 970 380" p="703c2c1b6220" stroke="#000000" fill="none" stroke-linecap="square" stroke-width="5"></path><path id="line_7c945890eb81" d="M 934 1098 L 952 1098 L 952 570 A 4 4 0 0 1 956 566 L 970 566" p="703c2c1b6220" stroke="#000000" fill="none" stroke-linecap="square" stroke-width="5"></path><path id="line_b2b9853a680a" d="M 934 1098 L 952 1098 L 952 756 A 4 4 0 0 1 956 752 L 970 752" p="703c2c1b6220" stroke="#000000" fill="none" stroke-linecap="square" stroke-width="5"></path><path id="line_ee0739b1604a" d="M 934 1098 L 952 1098 L 952 1519 A 4 4 0 0 0 956 1523 L 970 1523" p="703c2c1b6220" stroke="#000000" fill="none" stroke-linecap="square" stroke-width="5"></path></g><g transform="translate(0.5,0.5)"></g><g class="svg-summary-con" transform="translate(0.5,0.5)"></g><g class="svg-boundary-con" transform="translate(0.5,0.5)"></g></g><g transform="translate(243, 1273)" id="sdjakdjak1"><g id="subline_f4d10b70011e" transform="translate(0.5,0.5)"><path id="line_21780fc9f261" d="M 934 2544.33349609375 L 952 2544.33349609375 L 952 92 A 4 4 0 0 1 956 88 L 970 88" p="f4d10b70011e" stroke="#000000" fill="none" stroke-linecap="square" stroke-width="5"></path><path id="line_bea93057b984" d="M 934 2544.33349609375 L 952 2544.33349609375 L 952 1150.5 A 4 4 0 0 1 956 1146.5 L 970 1146.5" p="f4d10b70011e" stroke="#000000" fill="none" stroke-linecap="square" stroke-width="5"></path><path id="line_e3af1a6ffee1" d="M 1898 1146.5 L 1916 1146.5 L 1916 659 A 4 4 0 0 1 1920 655 L 1934.0001220703125 655" p="bea93057b984" stroke="#000000" fill="none" stroke-linecap="square" stroke-width="5"></path><path id="line_527147f9f8c2" d="M 1898 1146.5 L 1916 1146.5 L 1916 1218 A 4 4 0 0 0 1920 1222 L 1934.0001220703125 1222" p="bea93057b984" stroke="#000000" fill="none" stroke-linecap="square" stroke-width="5"></path><path id="line_59aad8b2929c" d="M 1898 1146.5 L 1916 1146.5 L 1916 1364 A 4 4 0 0 0 1920 1368 L 1934.0001220703125 1368" p="bea93057b984" stroke="#000000" fill="none" stroke-linecap="square" stroke-width="5"></path><path id="line_ee225361e35d" d="M 1898 1146.5 L 1916 1146.5 L 1916 1762.5 A 4 4 0 0 0 1920 1766.5 L 1934.0001220703125 1766.5" p="bea93057b984" stroke="#000000" fill="none" stroke-linecap="square" stroke-width="5"></path><path id="line_e851a1dbdecd" d="M 934 2544.33349609375 L 952 2544.33349609375 L 952 3598.8333740234375 A 4 4 0 0 0 956 3602.8333740234375 L 970 3602.8333740234375" p="f4d10b70011e" stroke="#000000" fill="none" stroke-linecap="square" stroke-width="5"></path><path id="line_806a6fa4e518" d="M 1899 3602.8333740234375 L 1917 3602.8333740234375 L 1917 2249 A 4 4 0 0 1 1921 2245 L 1935.0001220703125 2245" p="e851a1dbdecd" stroke="#000000" fill="none" stroke-linecap="square" stroke-width="5"></path><path id="line_f60fa614488b" d="M 1899 3602.8333740234375 L 1917 3602.8333740234375 L 1917 2435 A 4 4 0 0 1 1921 2431 L 1935.0001220703125 2431" p="e851a1dbdecd" stroke="#000000" fill="none" stroke-linecap="square" stroke-width="5"></path><path id="line_4d5725b5bd82" d="M 1899 3602.8333740234375 L 1917 3602.8333740234375 L 1917 2701.3333435058594 A 4 4 0 0 1 1921 2697.3333435058594 L 1935.0001220703125 2697.3333435058594" p="e851a1dbdecd" stroke="#000000" fill="none" stroke-linecap="square" stroke-width="5"></path><path id="line_e1ecd51bce00" d="M 2824.45849609375 2697.3333435058594 L 2843 2697.3333435058594 L 2843 2697.333333969116 L 2860.4583740234375 2697.333333969116" p="4d5725b5bd82" stroke="#000000" fill="none" stroke-linecap="square" stroke-width="5"></path><path id="line_5c244e0e62e5" d="M 1899 3602.8333740234375 L 1917 3602.8333740234375 L 1917 3007.6666870117188 A 4 4 0 0 1 1921 3003.6666870117188 L 1935.0001220703125 3003.6666870117188" p="e851a1dbdecd" stroke="#000000" fill="none" stroke-linecap="square" stroke-width="5"></path><path id="line_b422a1a18dfa" d="M 1899 3602.8333740234375 L 1917 3602.8333740234375 L 1917 3193.6666870117188 A 4 4 0 0 1 1921 3189.6666870117188 L 1935.0001220703125 3189.6666870117188" p="e851a1dbdecd" stroke="#000000" fill="none" stroke-linecap="square" stroke-width="5"></path><path id="line_9dbd67be2f46" d="M 1899 3602.8333740234375 L 1917 3602.8333740234375 L 1917 3379.6666870117188 A 4 4 0 0 1 1921 3375.6666870117188 L 1935.0001220703125 3375.6666870117188" p="e851a1dbdecd" stroke="#000000" fill="none" stroke-linecap="square" stroke-width="5"></path><path id="line_def9c25328ec" d="M 1899 3602.8333740234375 L 1917 3602.8333740234375 L 1917 3565.6666870117188 A 4 4 0 0 1 1921 3561.6666870117188 L 1935.0001220703125 3561.6666870117188" p="e851a1dbdecd" stroke="#000000" fill="none" stroke-linecap="square" stroke-width="5"></path><path id="line_e863b92f3d5b" d="M 1899 3602.8333740234375 L 1917 3602.8333740234375 L 1917 3966.666748046875 A 4 4 0 0 0 1921 3970.666748046875 L 1935.0001220703125 3970.666748046875" p="e851a1dbdecd" stroke="#000000" fill="none" stroke-linecap="square" stroke-width="5"></path><path id="line_a0ed27c15878" d="M 1899 3602.8333740234375 L 1917 3602.8333740234375 L 1917 4375.666748046875 A 4 4 0 0 0 1921 4379.666748046875 L 1935.0001220703125 4379.666748046875" p="e851a1dbdecd" stroke="#000000" fill="none" stroke-linecap="square" stroke-width="5"></path><path id="line_78e91b6e0135" d="M 1899 3602.8333740234375 L 1917 3602.8333740234375 L 1917 4779.166748046875 A 4 4 0 0 0 1921 4783.166748046875 L 1935.0001220703125 4783.166748046875" p="e851a1dbdecd" stroke="#000000" fill="none" stroke-linecap="square" stroke-width="5"></path><path id="line_5f1ad82170b5" d="M 2863.0001220703125 4783.166748046875 L 2882 4783.166748046875 L 2882 4783.166748046875 L 2899.0001220703125 4783.166748046875" p="78e91b6e0135" stroke="#000000" fill="none" stroke-linecap="square" stroke-width="5"></path></g><g transform="translate(0.5,0.5)"></g><g class="svg-summary-con" transform="translate(0.5,0.5)"></g><g class="svg-boundary-con" transform="translate(0.5,0.5)"></g></g><g transform="translate(243, 1148)" id="sdjakdjak2"><g id="subline_86009d6c35e7" transform="translate(0.5,0.5)"></g><g transform="translate(0.5,0.5)"></g><g class="svg-summary-con" transform="translate(0.5,0.5)"></g><g class="svg-boundary-con" transform="translate(0.5,0.5)"></g></g><g transform="translate(243, 30)" id="sdjakdjak3"><g id="subline_117ac2b66387" transform="translate(0.5,0.5)"><path id="line_ca86115a433a" d="M 934 549 L 952 549 L 952 420 A 4 4 0 0 1 956 416 L 970 416" p="117ac2b66387" stroke="#000000" fill="none" stroke-linecap="square" stroke-width="5"></path><path id="line_62ab4b673bf8" d="M 934 549 L 952 549 L 952 638 A 4 4 0 0 0 956 642 L 970 642" p="117ac2b66387" stroke="#000000" fill="none" stroke-linecap="square" stroke-width="5"></path></g><g transform="translate(0.5,0.5)"></g><g class="svg-summary-con" transform="translate(0.5,0.5)"></g><g class="svg-boundary-con" transform="translate(0.5,0.5)"></g></g><g transform="translate(30, 4248)" id="sdjakdjak4"><g id="subline_root" transform="translate(0.5,0.5)"></g><g transform="translate(0.5,0.5)"></g><g class="svg-summary-con" transform="translate(0.5,0.5)"></g><g class="svg-boundary-con" transform="translate(0.5,0.5)"></g></g><g id="root"><rect x="30" y="4248" rx="0px" ry="0px" width="153" height="113" style="fill: #ffffff; stroke:#000000;stroke-width:5px;"></rect><g><text text-anchor="start" align="top" anchor="start" font-size="50px" font-weight="bold" fill="rgb(0, 0, 0)" style="font-size:50px;font-family:微软雅黑;color:#000000;font-style:normal;text-align:left;font-weight:bold;border-color:#000000;"><tspan x="51" y="4324"><tspan>PE头</tspan></tspan></text></g></g></svg>